<mxfile host="app.diagrams.net" modified="2024-02-27T19:41:46.503Z" agent="Mozilla/5.0 (Windows NT 10.0; Win64; x64) AppleWebKit/537.36 (KHTML, like Gecko) Chrome/121.0.0.0 Safari/537.36" etag="h7yP4pUy_AXyp4-iwrg8" version="23.1.7" type="device">
  <diagram id="C5RBs43oDa-KdzZeNtuy" name="Page-1">
    <mxGraphModel dx="2333" dy="1256" grid="1" gridSize="10" guides="1" tooltips="1" connect="1" arrows="1" fold="1" page="1" pageScale="1" pageWidth="827" pageHeight="1169" math="0" shadow="0">
      <root>
        <mxCell id="WIyWlLk6GJQsqaUBKTNV-0" />
        <mxCell id="WIyWlLk6GJQsqaUBKTNV-1" parent="WIyWlLk6GJQsqaUBKTNV-0" />
        <mxCell id="WIyWlLk6GJQsqaUBKTNV-2" value="" style="rounded=0;html=1;jettySize=auto;orthogonalLoop=1;fontSize=11;endArrow=block;endFill=0;endSize=8;strokeWidth=1;shadow=0;labelBackgroundColor=none;edgeStyle=orthogonalEdgeStyle;" parent="WIyWlLk6GJQsqaUBKTNV-1" source="WIyWlLk6GJQsqaUBKTNV-3" edge="1">
          <mxGeometry relative="1" as="geometry">
            <mxPoint x="390" y="150" as="targetPoint" />
            <Array as="points">
              <mxPoint x="390" y="150" />
            </Array>
          </mxGeometry>
        </mxCell>
        <mxCell id="WIyWlLk6GJQsqaUBKTNV-3" value="Arquitetura de redes&lt;br&gt;com IoT" style="rounded=1;whiteSpace=wrap;html=1;fontSize=12;glass=0;strokeWidth=1;shadow=0;" parent="WIyWlLk6GJQsqaUBKTNV-1" vertex="1">
          <mxGeometry x="330" y="30" width="120" height="40" as="geometry" />
        </mxCell>
        <mxCell id="WIyWlLk6GJQsqaUBKTNV-7" value="O que é rede de&lt;br&gt;computadores?" style="rounded=1;whiteSpace=wrap;html=1;fontSize=12;glass=0;strokeWidth=1;shadow=0;" parent="WIyWlLk6GJQsqaUBKTNV-1" vertex="1">
          <mxGeometry x="330" y="150" width="120" height="40" as="geometry" />
        </mxCell>
        <mxCell id="x1nYN6eYdsL1VnI_SD_H-2" value="" style="endArrow=classic;html=1;rounded=0;exitX=0.5;exitY=1;exitDx=0;exitDy=0;" edge="1" parent="WIyWlLk6GJQsqaUBKTNV-1" source="WIyWlLk6GJQsqaUBKTNV-7">
          <mxGeometry width="50" height="50" relative="1" as="geometry">
            <mxPoint x="380" y="320" as="sourcePoint" />
            <mxPoint x="390" y="260" as="targetPoint" />
          </mxGeometry>
        </mxCell>
        <mxCell id="x1nYN6eYdsL1VnI_SD_H-3" value="&lt;span class=&quot;OYPEnA text-decoration-none text-strikethrough-none&quot; style=&quot;color: rgb(0, 0, 0); font-weight: 400; font-style: normal;&quot;&gt;Redes de computadores referem-se a dispositivos de computação interconectados que podem trocar dados e compartilhar recursos entre si. Esses dispositivos em rede usam um sistema de regras, chamados de protocolos de comunicação, para transmitir informações por meio de tecnologias físicas ou sem fio.&lt;/span&gt;" style="text;whiteSpace=wrap;html=1;" vertex="1" parent="WIyWlLk6GJQsqaUBKTNV-1">
          <mxGeometry x="280" y="260" width="230" height="80" as="geometry" />
        </mxCell>
        <mxCell id="x1nYN6eYdsL1VnI_SD_H-4" value="Arquiteturas de Redes e seus tipos" style="rounded=1;whiteSpace=wrap;html=1;" vertex="1" parent="WIyWlLk6GJQsqaUBKTNV-1">
          <mxGeometry x="330" y="450" width="110" height="40" as="geometry" />
        </mxCell>
        <mxCell id="x1nYN6eYdsL1VnI_SD_H-5" value="" style="endArrow=classic;html=1;rounded=0;" edge="1" parent="WIyWlLk6GJQsqaUBKTNV-1">
          <mxGeometry width="50" height="50" relative="1" as="geometry">
            <mxPoint x="389.17" y="390" as="sourcePoint" />
            <mxPoint x="389.17" y="440" as="targetPoint" />
          </mxGeometry>
        </mxCell>
        <mxCell id="x1nYN6eYdsL1VnI_SD_H-7" value="" style="endArrow=classic;html=1;rounded=0;exitX=0;exitY=0.75;exitDx=0;exitDy=0;exitPerimeter=0;" edge="1" parent="WIyWlLk6GJQsqaUBKTNV-1" source="x1nYN6eYdsL1VnI_SD_H-4">
          <mxGeometry width="50" height="50" relative="1" as="geometry">
            <mxPoint x="360" y="510" as="sourcePoint" />
            <mxPoint x="220" y="480" as="targetPoint" />
            <Array as="points">
              <mxPoint x="270" y="480" />
              <mxPoint x="220" y="480" />
            </Array>
          </mxGeometry>
        </mxCell>
        <mxCell id="x1nYN6eYdsL1VnI_SD_H-9" value="redes: ponto a ponto" style="rounded=1;whiteSpace=wrap;html=1;fillColor=#d5e8d4;strokeColor=#82b366;" vertex="1" parent="WIyWlLk6GJQsqaUBKTNV-1">
          <mxGeometry x="60" y="470" width="130" height="30" as="geometry" />
        </mxCell>
        <mxCell id="x1nYN6eYdsL1VnI_SD_H-11" value="" style="shape=image;verticalLabelPosition=bottom;labelBackgroundColor=default;verticalAlign=top;aspect=fixed;imageAspect=0;image=https://upload.wikimedia.org/wikipedia/commons/thumb/3/3f/P2P-network.svg/1200px-P2P-network.svg.png;" vertex="1" parent="WIyWlLk6GJQsqaUBKTNV-1">
          <mxGeometry x="69.5" y="540" width="111" height="114.73" as="geometry" />
        </mxCell>
        <mxCell id="x1nYN6eYdsL1VnI_SD_H-16" value="" style="endArrow=classic;html=1;rounded=0;" edge="1" parent="WIyWlLk6GJQsqaUBKTNV-1">
          <mxGeometry width="50" height="50" relative="1" as="geometry">
            <mxPoint x="120" y="500" as="sourcePoint" />
            <mxPoint x="120" y="550" as="targetPoint" />
          </mxGeometry>
        </mxCell>
        <mxCell id="x1nYN6eYdsL1VnI_SD_H-17" value="" style="endArrow=classic;html=1;rounded=0;" edge="1" parent="WIyWlLk6GJQsqaUBKTNV-1">
          <mxGeometry width="50" height="50" relative="1" as="geometry">
            <mxPoint x="124.16999999999999" y="640" as="sourcePoint" />
            <mxPoint x="124.16999999999999" y="710" as="targetPoint" />
          </mxGeometry>
        </mxCell>
        <mxCell id="x1nYN6eYdsL1VnI_SD_H-18" value="Também chamado de P2P (peer-to-peer).&#xa;Arquitetura de rede de computadores em que&#xa;cada dispositivo conectado tem a mesma função e&#xa;pode agir tanto como cliente quanto como&#xa;servidor.&#xa;Nesse tipo de rede, não há um servidor central&#xa;que gerencia o tráfego de dados, mas sim uma&#xa;comunicação direta entre os dispositivos.&#xa;Uma das vantagens das redes ponto-a-ponto é a&#xa;sua facilidade de implementação, já que não é&#xa;necessário um servidor central e as configurações&#xa;podem ser feitas pelos próprios usuários.&#xa;Desvantagem da rede é a sua vulnerabilidade à&#xa;segurança, já que os dispositivos são responsáveis&#xa;por gerenciar seus próprios recursos e não há&#xa;uma autoridade central que gerencie o acesso aos&#xa;recursos da rede." style="text;whiteSpace=wrap;html=1;" vertex="1" parent="WIyWlLk6GJQsqaUBKTNV-1">
          <mxGeometry x="10" y="720" width="330" height="10" as="geometry" />
        </mxCell>
        <mxCell id="x1nYN6eYdsL1VnI_SD_H-20" value="Redes Cliente-Servidor" style="rounded=1;whiteSpace=wrap;html=1;arcSize=37;fillColor=#f8cecc;strokeColor=#b85450;" vertex="1" parent="WIyWlLk6GJQsqaUBKTNV-1">
          <mxGeometry x="580" y="460" width="100" height="30" as="geometry" />
        </mxCell>
        <mxCell id="x1nYN6eYdsL1VnI_SD_H-21" value="" style="endArrow=classic;html=1;rounded=0;" edge="1" parent="WIyWlLk6GJQsqaUBKTNV-1">
          <mxGeometry width="50" height="50" relative="1" as="geometry">
            <mxPoint x="629.5" y="490" as="sourcePoint" />
            <mxPoint x="629.5" y="530" as="targetPoint" />
          </mxGeometry>
        </mxCell>
        <mxCell id="x1nYN6eYdsL1VnI_SD_H-22" value="" style="shape=image;verticalLabelPosition=bottom;labelBackgroundColor=default;verticalAlign=top;aspect=fixed;imageAspect=0;image=https://4.bp.blogspot.com/_xVuusqQvFWI/S83DmWhrrzI/AAAAAAAAAC4/NPWIkf0MYBo/s1600/ClienteServidor.png;" vertex="1" parent="WIyWlLk6GJQsqaUBKTNV-1">
          <mxGeometry x="600" y="540" width="66" height="41.88" as="geometry" />
        </mxCell>
        <mxCell id="x1nYN6eYdsL1VnI_SD_H-23" value="" style="endArrow=classic;html=1;rounded=0;" edge="1" parent="WIyWlLk6GJQsqaUBKTNV-1">
          <mxGeometry width="50" height="50" relative="1" as="geometry">
            <mxPoint x="632.5" y="585" as="sourcePoint" />
            <mxPoint x="632.5" y="635" as="targetPoint" />
          </mxGeometry>
        </mxCell>
        <mxCell id="x1nYN6eYdsL1VnI_SD_H-24" value="O servidor é um computador poderoso com&#xa;recursos de hardware e software especializados&#xa;que podem atender a vários clientes&#xa;simultaneamente.&#xa;O servidor pode oferecer uma ampla variedade de&#xa;serviços, como armazenamento de dados,&#xa;processamento de aplicativos, hospedagem de&#xa;sites, gerenciamento de bancos de dados e&#xa;serviços de rede, como: e-mail, mensagens&#xa;instantâneas e contas de domínio.&#xa;Cliente são computadores que fazem uso dos&#xa;serviços disponibilizados dos servidores na rede." style="text;whiteSpace=wrap;html=1;" vertex="1" parent="WIyWlLk6GJQsqaUBKTNV-1">
          <mxGeometry x="510" y="630" width="280" height="170" as="geometry" />
        </mxCell>
        <mxCell id="x1nYN6eYdsL1VnI_SD_H-25" value="Vantagem:&#xa;Em um ambiente cliente-servidor, o servidor é&#xa;responsável por gerenciar o acesso aos recursos e&#xa;aplicativos, o que permite um controle&#xa;centralizado dos recursos da rede e maior&#xa;segurança.&#xa;Desvantagem:&#xa;Em uma arquitetura cliente-servidor, a rede&#xa;depende da disponibilidade e desempenho do&#xa;servidor central. Portanto, se houver falhas no&#xa;servidor, a rede inteira pode ser afetada." style="text;whiteSpace=wrap;html=1;" vertex="1" parent="WIyWlLk6GJQsqaUBKTNV-1">
          <mxGeometry x="510" y="810" width="310" height="180" as="geometry" />
        </mxCell>
        <mxCell id="x1nYN6eYdsL1VnI_SD_H-26" value="" style="endArrow=classic;html=1;rounded=0;" edge="1" parent="WIyWlLk6GJQsqaUBKTNV-1">
          <mxGeometry width="50" height="50" relative="1" as="geometry">
            <mxPoint x="440" y="480" as="sourcePoint" />
            <mxPoint x="550" y="480" as="targetPoint" />
          </mxGeometry>
        </mxCell>
        <mxCell id="x1nYN6eYdsL1VnI_SD_H-28" value="" style="endArrow=classic;html=1;rounded=0;" edge="1" parent="WIyWlLk6GJQsqaUBKTNV-1">
          <mxGeometry width="50" height="50" relative="1" as="geometry">
            <mxPoint x="124.09" y="970" as="sourcePoint" />
            <mxPoint x="124" y="1060" as="targetPoint" />
          </mxGeometry>
        </mxCell>
        <mxCell id="x1nYN6eYdsL1VnI_SD_H-29" value="" style="endArrow=classic;html=1;rounded=0;" edge="1" parent="WIyWlLk6GJQsqaUBKTNV-1">
          <mxGeometry width="50" height="50" relative="1" as="geometry">
            <mxPoint x="629.09" y="980" as="sourcePoint" />
            <mxPoint x="629.09" y="1060" as="targetPoint" />
            <Array as="points">
              <mxPoint x="629.09" y="1040" />
            </Array>
          </mxGeometry>
        </mxCell>
        <mxCell id="x1nYN6eYdsL1VnI_SD_H-30" value="" style="endArrow=classic;html=1;rounded=0;" edge="1" parent="WIyWlLk6GJQsqaUBKTNV-1">
          <mxGeometry width="50" height="50" relative="1" as="geometry">
            <mxPoint x="130" y="1060" as="sourcePoint" />
            <mxPoint x="350" y="1060" as="targetPoint" />
            <Array as="points">
              <mxPoint x="140" y="1060" />
            </Array>
          </mxGeometry>
        </mxCell>
        <mxCell id="x1nYN6eYdsL1VnI_SD_H-31" value="" style="endArrow=classic;html=1;rounded=0;" edge="1" parent="WIyWlLk6GJQsqaUBKTNV-1">
          <mxGeometry width="50" height="50" relative="1" as="geometry">
            <mxPoint x="630" y="1060" as="sourcePoint" />
            <mxPoint x="350" y="1060" as="targetPoint" />
          </mxGeometry>
        </mxCell>
        <mxCell id="x1nYN6eYdsL1VnI_SD_H-32" value="" style="endArrow=classic;html=1;rounded=0;" edge="1" parent="WIyWlLk6GJQsqaUBKTNV-1">
          <mxGeometry width="50" height="50" relative="1" as="geometry">
            <mxPoint x="350" y="1060" as="sourcePoint" />
            <mxPoint x="350" y="1120" as="targetPoint" />
            <Array as="points">
              <mxPoint x="350" y="1090" />
            </Array>
          </mxGeometry>
        </mxCell>
      </root>
    </mxGraphModel>
  </diagram>
</mxfile>
